HIERARCHY
ROOT Hips
{
	OFFSET 0.000000 0.000000 0.000000 
	CHANNELS 6 Xposition Yposition Zposition Zrotation Yrotation Xrotation
	JOINT LeftUpLeg
	{
		OFFSET 1.363060 -1.794630 0.839290 
		CHANNELS 3 Zrotation Yrotation Xrotation
		JOINT LeftLeg
		{
			OFFSET 2.448110 -6.726130 0.000000 
			CHANNELS 3 Zrotation Yrotation Xrotation
			JOINT LeftFoot
			{
				OFFSET 2.562200 -7.039590 0.000000 
				CHANNELS 3 Zrotation Yrotation Xrotation
				JOINT LeftToeBase
				{
					OFFSET 0.157640 -0.433110 2.322550 
					CHANNELS 3 Zrotation Yrotation Xrotation
					End Site
					{
						OFFSET 0.000000 0.000000 0.000000 
					}
				}
			}
		}
	}
	JOINT RightUpLeg
	{
		OFFSET -1.305520 -1.794630 0.839290 
		CHANNELS 3 Zrotation Yrotation Xrotation
		JOINT RightLeg
		{
			OFFSET -2.542530 -6.985550 0.000000 
			CHANNELS 3 Zrotation Yrotation Xrotation
			JOINT RightFoot
			{
				OFFSET -2.568260 -7.056230 0.000000 
				CHANNELS 3 Zrotation Yrotation Xrotation
				JOINT RightToeBase
				{
					OFFSET -0.164730 -0.452590 2.363150 
					CHANNELS 3 Zrotation Yrotation Xrotation
					End Site
					{
						OFFSET 0.000000 0.000000 0.000000 
					}
				}
			}
		}
	}
	JOINT Spine
	{
		OFFSET 0.028270 2.035590 -0.193380 
		CHANNELS 3 Zrotation Yrotation Xrotation
		JOINT Spine1
		{
			OFFSET 0.056720 2.048850 -0.042750 
			CHANNELS 3 Zrotation Yrotation Xrotation
			JOINT Neck1
			{
				OFFSET -0.054170 1.746240 0.172020 
				CHANNELS 3 Zrotation Yrotation Xrotation
				JOINT Head
				{
					OFFSET 0.104070 1.761360 -0.123970 
					CHANNELS 3 Zrotation Yrotation Xrotation
					End Site
					{
						OFFSET 0.000000 0.000000 0.000000 
					}
				}
			}
			JOINT LeftArm
			{
				OFFSET 3.362410 1.200890 -0.311210 
				CHANNELS 3 Zrotation Yrotation Xrotation
				JOINT LeftForeArm
				{
					OFFSET 4.983000 -0.000000 -0.000000 
					CHANNELS 3 Zrotation Yrotation Xrotation
					JOINT LeftHand
					{
						OFFSET 3.483560 -0.000000 -0.000000 
						CHANNELS 3 Zrotation Yrotation Xrotation
						JOINT LeftHandIndex1
						{
							OFFSET 0.715260 -0.000000 -0.000000 
							CHANNELS 3 Zrotation Yrotation Xrotation
							End Site
							{
								OFFSET 0.000000 0.000000 0.000000 
							}
						}
					}
				}
			}
			JOINT RightArm
			{
				OFFSET -3.136600 1.374050 -0.404650 
				CHANNELS 3 Zrotation Yrotation Xrotation
				JOINT RightForeArm
				{
					OFFSET -5.241900 -0.000000 -0.000000 
					CHANNELS 3 Zrotation Yrotation Xrotation
					JOINT RightHand
					{
						OFFSET -3.444170 -0.000000 -0.000000 
						CHANNELS 3 Zrotation Yrotation Xrotation
						JOINT RightHandIndex1
						{
							OFFSET -0.622530 -0.000000 -0.000000 
							CHANNELS 3 Zrotation Yrotation Xrotation
							End Site
							{
								OFFSET 0.000000 0.000000 0.000000 
							}
						}
					}
				}
			}
		}
	}
}
MOTION
Frames: 12
Frame Time: 0.041667
-39.293459 17.365653 8.178132 -16.810674 54.018326 -20.777757 -16.257536 12.481764 -2.181961 0.464506 10.271790 27.324099 -1.025485 8.263876 -10.492522 0.145400 2.457400 6.771600 -3.453800 -28.431590 -17.222889 -4.624444 -13.217724 40.489191 0.118217 -12.704474 -23.304726 -3.142700 -10.922600 32.019300 -0.789160 1.618157 -1.674370 -2.358102 0.729957 0.847416 5.702478 7.366627 4.335592 1.600800 3.340400 9.445100 -54.605328 -39.951039 40.835113 42.483241 -47.660539 -21.417288 -1.067530 0.526490 -17.418484 -7.125000 0.000000 0.000000 63.281210 -9.563961 -3.511150 -14.979966 26.332789 -4.268275 0.532289 -1.512947 -11.568025 7.125000 0.000000 0.000000 
-39.113448 17.555406 8.204144 -16.672588 53.858512 -21.083835 -16.037671 13.775499 -0.784128 0.406653 9.926365 26.346559 -1.395618 9.663016 -6.576289 0.041400 1.313300 3.611400 -2.609049 -28.369851 -18.770091 -4.829326 -13.442282 41.402698 0.387396 -14.319487 -23.249573 -2.106000 -9.083500 26.057000 -0.761350 1.384410 -1.653578 -1.998130 0.587196 0.822688 5.621557 7.734216 4.644121 1.589100 3.491100 9.609100 -52.611184 -41.512441 40.343369 43.312165 -47.984219 -22.015888 -1.063420 0.526910 -18.072931 -7.125000 0.000000 0.000000 62.081798 -9.685738 -5.134060 -14.515478 25.590408 -4.097400 0.438326 -1.500329 -9.778399 7.125000 0.000000 0.000000 
-38.932297 17.745677 8.228394 -16.334322 53.836931 -21.076704 -16.021950 13.858105 0.966420 0.114561 9.221125 24.208375 -1.685937 11.293952 -2.583384 0.277400 3.387800 9.360200 -1.953502 -28.446168 -20.562136 -5.074221 -13.643515 42.385238 0.309427 -14.627592 -24.540803 -2.311000 -9.485900 27.327500 -0.773181 1.147944 -1.638674 -1.776394 0.460301 0.808894 5.450449 8.078383 4.680800 1.487200 3.633900 9.577700 -50.468506 -42.920329 39.731660 44.259230 -48.362311 -22.715183 -1.056564 0.524786 -18.255979 -7.125000 0.000000 0.000000 61.124028 -10.200726 -6.025971 -14.497889 25.448635 -4.096257 0.379009 -1.487354 -8.998495 7.125000 0.000000 0.000000 
-38.752492 17.934601 8.252230 -16.069376 53.914362 -21.066058 -15.865554 14.758587 1.955708 0.086366 8.963192 23.488716 -1.613427 11.373906 0.343900 0.270300 3.344400 9.239100 -1.448458 -28.087597 -22.389286 -5.428002 -13.938876 43.799097 0.339078 -14.874159 -24.736017 -2.130700 -9.133200 26.212800 -0.775806 0.849927 -1.630669 -1.560468 0.304926 0.834176 5.167213 8.482754 4.848294 1.321800 3.787900 9.648600 -48.402250 -44.176275 39.084198 45.101650 -48.683969 -23.341719 -1.049546 0.535746 -18.087892 -7.125000 0.000000 0.000000 60.181471 -11.032277 -6.182956 -14.853189 25.790356 -4.227428 0.346855 -1.469029 -8.934769 7.125000 0.000000 0.000000 
-38.571652 18.124147 8.280003 -15.953971 54.076800 -21.310031 -15.440705 15.665228 2.813630 0.113660 8.782291 23.007300 -1.545866 11.948650 3.905206 0.371100 3.912900 10.831800 -0.898633 -27.770852 -23.578989 -5.649870 -14.141154 44.674827 0.290940 -14.920499 -25.314567 -2.091600 -9.054300 25.965400 -0.770802 0.522712 -1.611971 -1.331833 0.132455 0.833475 4.968778 8.916588 4.942506 1.226300 3.964800 9.653000 -46.368384 -45.346384 38.523814 45.800284 -48.935650 -23.857995 -1.045267 0.552127 -18.038449 -7.125000 0.000000 0.000000 59.157813 -11.877080 -5.990725 -15.192208 26.121109 -4.346703 0.327428 -1.447050 -9.405464 7.125000 0.000000 0.000000 
-38.384283 18.314418 8.308295 -15.615784 54.121356 -21.315765 -15.189370 16.359057 3.601890 0.136596 8.658328 22.591190 -1.578262 13.729338 7.551828 1.290700 7.198500 20.304800 -0.494978 -27.122732 -24.845667 -5.937113 -14.377283 45.756005 0.110540 -13.759685 -25.237847 -2.713600 -10.216300 29.680100 -0.786257 0.311472 -1.585934 -1.292579 0.026757 0.971356 4.355578 9.358125 5.183587 0.768600 4.116300 9.924400 -43.776397 -46.467831 37.990734 46.901896 -49.352183 -24.684010 -1.050852 0.535938 -18.698713 -7.125000 0.000000 0.000000 58.298817 -12.583293 -6.170575 -15.464843 26.356797 -4.429768 0.324197 -1.425351 -9.862060 7.125000 0.000000 0.000000 
-38.211319 18.502720 8.332027 -15.705235 54.221568 -21.564461 -14.593310 16.827680 4.011272 0.144492 8.596265 22.492840 -1.783825 14.189474 5.936063 0.599700 4.957400 13.787000 0.287584 -26.472080 -26.075286 -6.149420 -14.606595 46.613626 0.271521 -14.277080 -24.639592 -2.419100 -9.689400 27.976600 -0.804863 0.059361 -1.554901 -1.092382 -0.098676 0.953915 4.538379 9.409648 4.891972 0.976400 4.151600 9.470600 -42.608220 -47.471936 36.914660 47.980071 -49.779311 -25.537522 -1.016068 0.538904 -17.854687 -7.125000 0.000000 0.000000 57.548842 -13.158656 -6.854997 -15.668945 26.547977 -4.493016 0.333956 -1.399036 -10.028481 7.125000 0.000000 0.000000 
-38.040427 18.682317 8.352443 -15.951420 54.467156 -21.945360 -13.845571 17.375470 4.164092 0.187739 8.585738 22.582928 -1.929990 14.294690 4.225999 0.410600 4.113400 11.395900 1.084691 -26.109810 -27.178496 -6.317182 -14.782206 47.264283 0.199597 -14.470010 -25.668390 -2.673300 -10.146400 29.452000 -0.787159 -0.251635 -1.573385 -0.905222 -0.253482 0.795338 4.466893 9.762409 4.962788 0.991500 4.300300 9.423000 -41.268394 -48.465952 36.351629 48.339079 -49.864934 -25.786615 -0.991504 0.557682 -17.786486 -7.125000 0.000000 0.000000 56.608013 -13.998127 -6.838266 -15.981518 26.831121 -4.582853 0.374307 -1.371459 -10.888519 7.125000 0.000000 0.000000 
-37.858861 18.857146 8.370683 -15.902646 54.797178 -22.207954 -13.398767 17.869493 4.416088 0.244442 8.607662 22.712209 -1.963306 14.443593 4.128975 0.243900 3.178300 8.775600 1.314795 -25.754307 -28.126548 -6.611765 -15.019299 48.395551 0.213493 -14.418898 -25.587158 -2.567600 -9.959700 28.846400 -0.771856 -0.507341 -1.582165 -0.661001 -0.381463 0.625105 4.264417 10.085191 5.040741 0.880200 4.428800 9.404900 -40.246520 -49.340607 35.848219 48.990193 -50.082827 -26.279892 -0.956320 0.578559 -16.957294 -7.125000 0.000000 0.000000 55.486834 -15.150456 -6.135163 -16.456454 27.307223 -4.727584 0.442487 -1.338228 -12.415517 7.125000 0.000000 0.000000 
-37.681441 19.017364 8.390788 -16.127271 55.146391 -22.498237 -12.923209 18.143772 4.284124 0.355609 8.754898 23.187507 -1.960690 14.587518 4.690954 0.169600 2.652800 7.313700 1.846309 -25.318430 -29.154269 -6.824480 -15.208230 49.207949 0.257367 -14.639241 -25.627093 -2.466800 -9.777400 28.258700 -0.778985 -0.586204 -1.559148 -0.665882 -0.412205 0.674802 3.928937 10.215078 5.254443 0.611900 4.463600 9.585100 -39.022516 -50.529136 35.851466 50.244440 -50.542028 -27.252131 -0.972619 0.559047 -17.386745 -7.125000 0.000000 0.000000 54.769780 -16.401481 -6.084419 -16.919453 27.773821 -4.875335 0.511810 -1.306703 -13.608760 7.125000 0.000000 0.000000 
-37.502362 19.167218 8.409649 -16.669590 55.434177 -23.107334 -12.248230 18.418230 4.092828 0.506813 8.963223 23.904551 -1.945898 14.364874 4.550322 0.140400 2.415000 6.654000 2.693005 -25.187489 -30.232088 -7.029394 -15.402160 49.987555 0.251653 -15.040445 -26.404066 -2.776600 -10.324200 30.033200 -0.780101 -0.680959 -1.539620 -0.753004 -0.450241 0.710195 3.877550 10.394371 5.450332 0.561400 4.546300 9.783200 -37.671368 -51.736882 35.734439 51.548353 -50.985737 -28.265474 -0.977583 0.536437 -17.791112 -7.125000 0.000000 0.000000 54.064873 -17.520331 -6.375626 -17.273289 28.095450 -4.984307 0.571851 -1.273409 -14.316330 7.125000 0.000000 0.000000 
-37.324631 19.306190 8.427681 -17.476663 55.582288 -23.998014 -11.435653 18.716569 3.875583 0.692815 9.211125 24.763596 -1.859354 13.820639 4.655534 0.131700 2.339300 6.444400 3.949117 -21.437708 -29.585044 -6.979614 -15.678321 49.919213 0.314377 -16.819216 -28.699002 -2.875700 -10.491100 30.582100 -0.737647 -1.064428 -1.519676 -0.542863 -0.646221 0.741031 3.970522 10.648859 5.545999 0.779700 4.634100 9.778300 -36.689972 -52.331669 34.646433 52.346520 -51.241560 -28.921785 -0.955538 0.552741 -18.153576 -7.125000 0.000000 0.000000 52.680158 -18.040613 -5.986411 -17.540292 28.334644 -5.055250 0.625438 -1.224903 -15.137321 7.125000 0.000000 0.000000 
